<svg xmlns="http://www.w3.org/2000/svg" viewBox="0 0 1022.82 278.67"><defs><style>.a{fill:#ececec;}.b{fill:#268ee9;}.c,.e{fill:#fff;}.c{fill-rule:evenodd;}.d{fill:#96bf47;}.f{fill:#ffdaf7;}.g{fill:#f54b28;}.h{fill:#2d2d2d;}.i{fill:#6156ff;}.j{fill:#2fc076;}.k{fill:#4dacff;}.l{fill:#26a6e9;}.m{fill:#2e2e2e;}.n{fill:#19a8e0;}.o{fill:#209757;}.p{fill:#bed24b;}.q{fill:#8759f2;}.r{fill:#ff3e80;}.s{fill:#ffc300;}.t{fill:#00d4e6;}.u{fill:#a3dae9;}.v{fill:#fefefe;}.w{fill:#525353;}.x{fill:#dd006e;}.y{fill:#9a2154;}.z{fill:#fefdfe;}.aa{fill:#bbbdbe;}.ab{fill:#f6af46;}.ac{fill:#e1dddb;}.ad{fill:#010101;}.ae{fill:#686a6b;}.af{fill:#ebe8e4;}.ag{fill:#1b1a19;}.ah{fill:#020202;}.ai{fill:#666767;}.aj{fill:#909393;}.ak{fill:#919393;}.al{fill:#fafafa;}.am{fill:#47a9ff;}.an{fill:#ff8a00;}.ao{fill:#505d78;}.ap{fill:#366bff;}.aq{fill:#4d5174;}.ar{fill:none;}.as{fill:#7ac143;}.at{fill:#f9a541;}.au{fill:#f44321;}.av{fill:#5091cd;}.aw{fill:#fbbd71;}.ax{fill:#930139;}.ay{fill:#fc79e2;}</style></defs><rect class="a" x="93.69" y="93.02" width="92.63" height="92.63" rx="20" transform="translate(-57.52 139.81) rotate(-45)"></rect><rect class="b" x="464.21" y="19.18" width="92.63" height="92.63" rx="20" transform="translate(103.21 380.18) rotate(-45)"></rect><path class="c" d="M509.34,44.8A19.71,19.71,0,0,1,522.75,50a3.26,3.26,0,0,0-3.52,3h0a2.16,2.16,0,0,0,0,.36c-.15,4.76,5.69,5.78,2.54,15.36l-2.6,7.92-7.09-20.88c-.11-.32,0-.51.42-.51h2a.2.2,0,0,0,.19-.2h0V53.87a.19.19,0,0,0-.19-.2h0q-5.7.24-11.32,0a.19.19,0,0,0-.19.19h0v1.19a.19.19,0,0,0,.19.2h2c.45,0,.58.15.68.44l2.92,8L504.4,76.89l-7.2-21.21c-.08-.27,0-.42.28-.42h2.3a.21.21,0,0,0,.19-.2h0V53.87a.2.2,0,0,0-.18-.2h0c-2.41.13-4.83.16-7.08.18a19.83,19.83,0,0,1,16.64-9.05Zm17.44,10.39A19.85,19.85,0,0,1,518.86,82L525,64.51a27.79,27.79,0,0,0,1.74-9.33h0ZM516,83.31a19.84,19.84,0,0,1-12.4.29l6.1-17.5L516,83.32h0Zm-15.12-.76a19.84,19.84,0,0,1-9.57-26.15l9.57,26.15Zm8.48-39.61a21.69,21.69,0,1,1-21.69,21.69h0a21.69,21.69,0,0,1,21.69-21.69Zm0-1.37a23.06,23.06,0,1,1-23.06,23.06h0a23.05,23.05,0,0,1,23.06-23.06Z"></path><rect class="d" x="242.7" y="93.02" width="92.63" height="92.63" rx="20" transform="translate(-13.87 245.17) rotate(-45)"></rect><path class="e" d="M295.36,161.84l12.9-2.78s-4.82-32.62-4.85-32.85a.44.44,0,0,0-.39-.37c-.16,0-3.59-.26-3.59-.26s-1.46-1.44-2.2-2.2Z"></path><path class="e" d="M295.94,122.8l-.1,0-1.34.42c-.76-2.28-2.17-4.38-4.64-4.38h-.21a3.05,3.05,0,0,0-2.3-1.33c-5.75,0-8.47,7.18-9.34,10.83-2.22.68-3.8,1.18-4,1.23-1.23.39-1.28.42-1.44,1.6-.13.92-3.38,26.08-3.38,26.08l24.87,4.66Zm-6.47,1.75v.24L285,126.15c.86-3.25,2.46-4.85,3.85-5.45A11,11,0,0,1,289.47,124.55Zm-2.28-5.45a1.38,1.38,0,0,1,.73.24c-1.84.86-3.8,3-4.64,7.39l-3.51,1.07c1-3.3,3.3-8.7,7.42-8.7Zm1,19.37a8,8,0,0,0-3.3-.78c-2.68,0-2.81,1.68-2.81,2.1,0,2.31,6,3.17,6,8.57,0,4.25-2.7,7-6.32,7a8.86,8.86,0,0,1-6.58-2.7l1.16-3.86s2.28,2,4.22,2a1.72,1.72,0,0,0,1.78-1.65h0V149c0-3-4.93-3.15-4.93-8.08,0-4.14,3-8.18,9-8.18a7.75,7.75,0,0,1,3.49.68Zm2.28-18.06c1.28.19,2.15,1.63,2.67,3.28-.63.21-1.36.42-2.15.65v-.47a10.45,10.45,0,0,0-.52-3.46Z"></path><rect class="f" x="316.54" y="166.85" width="92.63" height="92.63" rx="20" transform="translate(-44.46 319.01) rotate(-45)"></rect><rect class="g" x="167.27" y="19.18" width="92.63" height="92.63" rx="20" transform="translate(16.24 170.21) rotate(-45)"></rect><path class="e" d="M194.23,65.52c0-3.46,0-6.92,0-10.38a1.23,1.23,0,0,1,.71-1.23q9-5.17,18.05-10.39a1.13,1.13,0,0,1,1.29,0q9,5.25,18.11,10.43a1.16,1.16,0,0,1,.65,1.13q0,10.41,0,20.82a1.15,1.15,0,0,1-.69,1.17c-1.39.76-2.77,1.58-4.16,2.37-.76.43-.84.39-.84-.5,0-6.76,0-13.52,0-20.28a1.59,1.59,0,0,0-.93-1.64q-6.16-3.48-12.26-7.06a1.07,1.07,0,0,0-1.24.08c-3.84,2.22-7.64,4.49-11.53,6.6a2.72,2.72,0,0,0-1.6,2.83c.09,6.51.05,13,.05,19.53,0,.88,0,.89-.77.46-1.41-.8-2.8-1.64-4.22-2.42a1.06,1.06,0,0,1-.62-1.06C194.24,72.48,194.23,69,194.23,65.52Z"></path><path class="e" d="M221.94,71.92c0,3.39,0,6.78,0,10.17a1.38,1.38,0,0,1-.78,1.39c-2.36,1.32-4.69,2.67-7,4a1,1,0,0,1-1.12,0q-3.61-2.1-7.24-4.17a.9.9,0,0,1-.53-.92,11,11,0,0,0,0-1.15c0-6.51,0-13-.1-19.53a1.5,1.5,0,0,1,.9-1.54c1.37-.73,2.7-1.53,4-2.31.72-.41.77-.39.77.43,0,6.8,0,13.61,0,20.41a1.76,1.76,0,0,0,.9,1.6,2.72,2.72,0,0,0,3.72,0,1.62,1.62,0,0,0,.8-1.45q0-10.09,0-20.21c0-.22,0-.45,0-.67s.18-.43.48-.25l4.85,2.8c.39.22.33.6.33,1C221.94,65,222,68.44,221.94,71.92Z"></path><rect class="h" x="539.38" y="93.02" width="92.63" height="92.63" rx="20" transform="translate(73.02 454.96) rotate(-45)"></rect><path class="e" d="M593.05,128.85a2.28,2.28,0,0,0-3.24,0h0l-14.6,14.6a4.59,4.59,0,1,1-6.61-6.37l.12-.12h0L583,122.64a4.59,4.59,0,0,0-6.49,0h0l-11.07,11.07a9.18,9.18,0,0,0,13,13l14.6-14.6a2.31,2.31,0,0,0,0-3.25Zm4.87-4.87a9.19,9.19,0,0,0-13,0h0l-14.6,14.6a2.3,2.3,0,1,0,3,3.45l.21-.21h0l14.6-14.6a4.58,4.58,0,0,1,6.48,0h0a2.29,2.29,0,1,0,3.34-3.14L598,124l0,0Zm4.86,14.6a2.3,2.3,0,0,0-3.24,0l-14.6,14.6a4.59,4.59,0,0,1-6.49,0h0a2.29,2.29,0,0,0-3.24,3.24h0a9.16,9.16,0,0,0,13,0h0l14.6-14.6a2.28,2.28,0,0,0,0-3.24Zm4.87-4.86a9.17,9.17,0,0,0-13,0l-14.6,14.6a2.29,2.29,0,0,0,3.25,3.24l14.6-14.6a4.58,4.58,0,0,1,6.48,6.48l-14.31,14.32a4.59,4.59,0,0,0,6.49,0l11.07-11.07a9.19,9.19,0,0,0,0-13Z"></path><rect class="i" x="316.54" y="19.18" width="92.63" height="92.63" rx="20" transform="translate(59.96 275.76) rotate(-45)"></rect><path class="e" d="M375.71,61.92l-3.58,11.25c-.1-.88-2.53-19.54-2.53-19.54-5.65,0-8.67,4-10.26,8.26L355,73.19c0-.81-.62-11.18-.62-11.18a9.22,9.22,0,0,0-9-8.36l4.67,28.27c5.91,0,9.11-4,10.77-8.26,0,0,3.57-9.19,3.71-9.61,0,.39,2.56,17.87,2.56,17.87,5.94,0,9.13-3.75,10.85-7.84l8.32-20.43C380.4,53.65,377.31,57.65,375.71,61.92Z"></path><rect class="j" x="911" y="166.85" width="92.63" height="92.63" rx="20" transform="translate(129.66 739.36) rotate(-45)"></rect><path class="e" d="M937.9,206.91c0-4.3,0-8.6,0-12.91,0-.76.21-.83.88-.83q19.37,0,38.73,0c0,.32,0,.64,0,1v37.28c0,.24,0,.47,0,.7a.59.59,0,0,1-.51.66H939.13l-1.23,0V219.41c1.32,0,2.64-.06,4-.06,4.6,0,9.2,0,13.8,0,.83,0,1.17.26,1.13,1.11s0,1.94,0,2.9c0,.55.06,1.08.64,1.34s1-.08,1.39-.46l10.13-10.14c.8-.8.79-1.27,0-2.09l-10.13-10.13c-.4-.39-.82-.71-1.4-.45s-.61.74-.62,1.26c0,1.11,0,2.23,0,3.34,0,.68-.27.93-.94.93Z"></path><rect class="k" x="613.22" y="19.18" width="92.63" height="92.63" rx="20" transform="translate(146.86 485.54) rotate(-45)"></rect><path class="e" d="M684.63,58l-5.79,16.38c-.61,1.73-1.18,3.47-1.89,5.16C674.63,85,668.5,87,663.62,84a9.39,9.39,0,0,1-3.12-3.5c-.49.07-.54.49-.72.77a9,9,0,0,1-15.46-.62,30.6,30.6,0,0,1-1.8-4.5q-2.88-8.14-5.74-16.29a9.92,9.92,0,0,1-.56-5.82,7.58,7.58,0,0,1,6.08-5.75,8,8,0,0,1,8.14,2.47,10.28,10.28,0,0,1,1.86,3.2c1.52-3.74,4.05-5.89,8.05-5.9s6.47,2.16,8,5.67c.47-.3.53-.76.71-1.13A8.07,8.07,0,0,1,677.31,48a8,8,0,0,1,7,5.56c.1.31.22.61.33.92ZM668.5,69.57a2.32,2.32,0,0,1-.51-1.14q-2-6.39-4-12.78a3.63,3.63,0,0,0-2.65-2.84c-2.26-.52-3.82.37-4.6,2.78-1.34,4.14-2.6,8.31-3.91,12.46a.91.91,0,0,1,0,1.29.91.91,0,1,1-1.33-1.25l0,0c-1.3-4.26-2.56-8.54-3.89-12.8a3.43,3.43,0,0,0-4.14-2.53h0a2,2,0,0,0-.35.1c-1.91.46-2.66,1.67-2.36,3.93a10.17,10.17,0,0,0,.48,1.88q2.5,7.13,5,14.24c.55,1.56,1.08,3.13,1.7,4.67a4.32,4.32,0,0,0,3.61,3,4.08,4.08,0,0,0,4.67-3.1c1.13-3.37,2.19-6.77,3.28-10.16a6.28,6.28,0,0,1,.83-2c.7,2.14,1.33,4.07,1.95,6,.7,2.15,1.34,4.33,2.09,6.46a3.91,3.91,0,0,0,3.59,2.82,4.06,4.06,0,0,0,4.24-2.35,13,13,0,0,0,.73-1.67q1.43-3.91,2.8-7.83c1.34-3.83,2.72-7.66,4-11.52A3.28,3.28,0,0,0,678,53l-.35-.12a3.51,3.51,0,0,0-4.5,2.08c-.05.14-.09.28-.13.42q-2,6.72-4.06,13.43c-.08.27-.08.59-.42.78Z"></path><rect class="l" x="19.18" y="19.18" width="92.63" height="92.63" rx="20" transform="translate(-27.13 65.5) rotate(-45)"></rect><path class="e" d="M52.79,87a13.74,13.74,0,0,1-3.07-2.24,21,21,0,0,1-7.28-14.31c-.61-7.74,2.46-14.76,10.12-18.75,1.87-1,3.76-1.89,5.55-3a9.17,9.17,0,0,0,4.58-8.49,10,10,0,0,1,.1-1.73c3,3.18,6.18,6.14,9.46,9-.76.13-1.48.06-2.19.13a10.62,10.62,0,0,0-8.5,15.5c.6,1.16.6,1.16-.71,1.44a14,14,0,0,0-8.32,21.75C52.65,86.52,52.88,86.65,52.79,87Z"></path><path class="e" d="M72,89.47a13,13,0,0,0,3.17-3.19,14,14,0,0,0-.41-16.69c-.85-1-.85-1,.38-1.56a10.62,10.62,0,0,0,6.35-11.25c0-.16,0-.33,0-.46a.24.24,0,0,1,.34,0h0c2.86,3.1,5.2,6.49,5.94,10.73A17.59,17.59,0,0,1,85,79.66a23.45,23.45,0,0,1-12.28,9.81A.6.6,0,0,1,72,89.47Z"></path><path class="e" d="M55.69,78.16a8.19,8.19,0,0,1,16.38,0,8.19,8.19,0,1,1-16.38,0Z"></path><path class="e" d="M77.22,58.26A6.27,6.27,0,0,1,71,64.55h0a6.3,6.3,0,1,1,6.29-6.29Z"></path><rect class="m" x="836.73" y="93.02" width="92.63" height="92.63" rx="20" transform="translate(160.12 665.22) rotate(-45)"></rect><path class="e" d="M874.8,148.76c-.65-.39-.62-1-.74-1.49q-1.71-7.43-3.41-14.87c-1-4.39-1-4.33-5.54-4.36-1.5,0-1.75.45-1.38,1.81,2.2,8.13,4.3,16.28,6.51,24.4,1.37,5,.1,4.14,5.73,4.29A2,2,0,0,0,878.3,157a1,1,0,0,0,0-.24c1.34-5.7,2.79-11.37,4.21-17.05a3.71,3.71,0,0,1,.63-1.76c.62.22.54.73.64,1.12q1.92,7.47,3.81,14.95c1.18,4.68,1.17,4.65,6,4.53a1.74,1.74,0,0,0,1.94-1.52c.73-2.86,1.57-5.7,2.34-8.55,1.68-6.23,3.32-12.47,5-18.69.35-1.28.11-1.85-1.32-1.72a14.45,14.45,0,0,1-2.79,0c-1.28-.11-1.82.4-2.1,1.67-1.31,5.87-2.72,11.71-4.12,17.56-.14.6-.12,1.3-.67,1.77-.68-.4-.65-1.06-.78-1.62-1.27-5.1-2.46-10.21-3.78-15.28-1.28-4.86,0-3.94-5.29-4.11-1.4,0-1.91.53-2.22,1.79-1.39,5.74-2.86,11.46-4.3,17.19A3.4,3.4,0,0,1,874.8,148.76Z"></path><rect class="a" x="687.72" y="93.02" width="92.63" height="92.63" rx="20" transform="translate(116.47 559.85) rotate(-45)"></rect><path class="n" d="M733.68,137.8l13.58-14.4c1.57-1.66,3.15-3.3,4.68-5a2,2,0,0,1,2.34-.74,2,2,0,0,1,1.21,2.15q0,13.91,0,27.82V158.5a2.19,2.19,0,0,1-.62,1.82c-.48.05-.73-.3-1-.6-1.11-1.45-2.47-2.66-3.71-4q-3.6-3.84-7.24-7.68c-3.05-3.2-6-6.48-9.12-9.65a1.05,1.05,0,0,1-.25-.37A.23.23,0,0,1,733.68,137.8Z"></path><path class="o" d="M733.67,137.94q4.32,4.51,8.63,9c2.38,2.52,4.73,5.07,7.11,7.59,1.81,1.93,3.64,3.84,5.46,5.76a1.66,1.66,0,0,1-1.52.65H714a1.91,1.91,0,0,1-1.48-.56c-.12-.44.2-.68.45-.93,2.37-2.4,4.63-4.9,7-7.34,2.92-3.09,5.84-6.17,8.72-9.3,1.25-1.36,2.63-2.6,3.79-4.06C732.76,138.42,733.05,137.91,733.67,137.94Z"></path><path class="p" d="M733.67,137.94c-2.31,2.42-4.63,4.83-6.92,7.26q-5.55,5.88-11.06,11.78a42.27,42.27,0,0,0-3.12,3.44,2,2,0,0,1-.65-1.63q0-19.6,0-39.22a1.81,1.81,0,0,1,1.14-1.89,1.92,1.92,0,0,1,2.22.61Q721.65,125,728,131.78c1.89,2,3.8,4,5.7,6C733.68,137.84,733.67,137.89,733.67,137.94Z"></path><rect class="a" x="613.22" y="166.85" width="92.63" height="92.63" rx="20" transform="translate(42.44 528.79) rotate(-45)"></rect><path class="q" d="M662.45,223.79l-8.87-15.37h-8.92a4.75,4.75,0,0,0-4.11,7.13l13.33,23.1a4.77,4.77,0,0,0,8.23,0l8.58-14.86a4.75,4.75,0,0,1-8.23,0Z"></path><path class="r" d="M671.33,208.42H653.58l8.87,15.37a4.78,4.78,0,0,0,6.51,1.73,4.83,4.83,0,0,0,1.72-1.73l4.76-8.23a4.76,4.76,0,0,0-1.75-6.5,4.67,4.67,0,0,0-2.36-.64Z"></path><path class="s" d="M679.9,193.57H653.23a4.75,4.75,0,0,0-4.11,7.12l4.46,7.73h17.75a4.76,4.76,0,0,1,4.11,7.13L684,200.7a4.76,4.76,0,0,0-4.12-7.13Z"></path><path class="t" d="M649.13,200.69a4.74,4.74,0,0,1,0-4.75l-8.58,14.86a4.75,4.75,0,0,1,4.11-2.37h8.93Z"></path><rect class="u" x="761.56" y="19.18" width="92.63" height="92.63" rx="20" transform="translate(190.31 590.44) rotate(-45)"></rect><path class="v" d="M795.65,85.28l-1.5-1a23,23,0,0,1-7.68-10.13,4.49,4.49,0,0,1-.42-1.45c0-2.39,1.12-4.42,2.2-6.45a1.17,1.17,0,0,1,.87-.58,76.39,76.39,0,0,1,9.45.1c2.77.73,5.58,1.29,8.34,2.06a4.1,4.1,0,0,1,.87.42c1.94,1.09,3.35.63,4.31-1.41.08-.17.14-.34.23-.5.68-1.11,1.69-.69,2.63-.55.56.48.32,1.06.19,1.61a37.54,37.54,0,0,1-2.53,6.45,18.19,18.19,0,0,0-1,2.5c-.25.6-.61,1.15-.82,1.77a.83.83,0,0,1-1,.64.6.6,0,0,1-.19-.06,22.29,22.29,0,0,1-5.24-2.72A25.94,25.94,0,0,0,809,80a2.5,2.5,0,0,1,1.21,1.83c.18,2.25,1.71,3.21,3.61,3.81a24.55,24.55,0,0,0,2.55.53c.33.15.8.09.91.58-.25.43-.74.47-1.13.68-.68.29-1.4.49-2.08.77a22.4,22.4,0,0,1-12.39,0c-.86-.3-1.75-.54-2.59-.9A23.58,23.58,0,0,1,796.42,86,2,2,0,0,1,795.65,85.28Z"></path><path class="w" d="M788.89,65.89a17.63,17.63,0,0,0-2.58,5.83c-.1.31-.17.62-.26.93a13,13,0,0,1-1-4.72,23,23,0,0,1,44.27-10.54,4.13,4.13,0,0,1,.13.63c-.65.1-.83-.4-1.06-.84a6.83,6.83,0,0,0-2.12-3.59,2.67,2.67,0,0,0-3.74-.27h0l-.16.15a9.34,9.34,0,0,0-2.58,4.57c-.14.41-.22.84-.36,1.25a3.33,3.33,0,0,0-.17,1,1.16,1.16,0,0,1-.12.45.33.33,0,0,1-.25.15c-1.28-.7-2.24-1.86-3.53-2.54A1.33,1.33,0,0,1,815,58a11.1,11.1,0,0,0-9.33-6.23,11.5,11.5,0,0,0-11.77,8c-.79,1.33-2.1,2.19-3,3.42A17,17,0,0,1,788.89,65.89Z"></path><path class="x" d="M829.6,72.94c1,1.38,1.92,2.78,2.93,4.14.34.46.32.75-.18,1a27.48,27.48,0,0,1-15.59,2.5c-.55-.1-1.09-.16-1.28-.8a3.93,3.93,0,0,1,.65-2.36c.82-1.61,1.86-3.1,2.59-4.76a11.79,11.79,0,0,0,.91-8.11,14,14,0,0,0-.68-2.48c-.12-.4-.33-.82,0-1.22h0c.4-.14.62.15.83.37A62.22,62.22,0,0,1,824.35,66c1.65,1.91,3.19,3.91,4.73,5.92A1.6,1.6,0,0,1,829.6,72.94Z"></path><path class="y" d="M815.66,79.59a.71.71,0,0,0,.71.68,29.2,29.2,0,0,0,14.54-1.73,4.3,4.3,0,0,1,1.44-.44,34.43,34.43,0,0,1-9.52,6.78L820.25,86a2.78,2.78,0,0,1-2.38.5,7,7,0,0,1-2.68-5.78C815.2,80.27,815.09,79.77,815.66,79.59Z"></path><path class="z" d="M829.6,72.94l-5.41-6.82c.53-1,1.39-.41,2.12-.46a1,1,0,0,1,.31.15c.27.31.21.73.37,1.07.8,1.43,1.11,1.4,2.07-.2a5.68,5.68,0,0,1,.78-.77c.3-.17.6-.33.88,0,.39,1.52-.1,3-.33,4.45A5.52,5.52,0,0,1,829.6,72.94Z"></path><path class="aa" d="M830.72,65.93a1.43,1.43,0,0,0-.86.18,4.72,4.72,0,0,1-.86-.87,1.65,1.65,0,0,1-.29-.76c-.26-1.54-.69-3-1-4.56A15.52,15.52,0,0,1,828,57c.28-.3.42-.06.56.15a2.19,2.19,0,0,0,.86.82A17.64,17.64,0,0,1,830.72,65.93Z"></path><path class="aa" d="M788.89,65.89a18.49,18.49,0,0,1,3.85-5.07c.33-.33.76-.57.94-1a16.82,16.82,0,0,1,8.79-4.38,16.52,16.52,0,0,1,6.15-.08,1.55,1.55,0,0,1,1,.39c.29.54,0,1.11.1,1.67-.73,2.07-1.34,4.2-2.13,6.25a.78.78,0,0,1-.22.26,64.63,64.63,0,0,1-8,2,2.32,2.32,0,0,0-.63.15,74.77,74.77,0,0,0-7.78-.16C790.26,65.9,789.58,65.9,788.89,65.89Z"></path><path d="M815.66,79.59A6.34,6.34,0,0,0,817,85.14c.3.4.77.66.92,1.18v.07a2.94,2.94,0,0,1-1.53,0,13.14,13.14,0,0,1-3-.59c-2.09-.68-3.42-2-3.5-4.29,0-.54-.31-.74-.67-1a29.85,29.85,0,0,1-5.71-5.17c.36-.24.54.09.75.22a39.9,39.9,0,0,0,5,2.66c.79.37,1.34.45,1.49-.63a2.45,2.45,0,0,1,.61-1.25,15.58,15.58,0,0,1,2.23-2.5,28.12,28.12,0,0,0,5.35-7.06,7,7,0,0,1,1.06-2.3,12.39,12.39,0,0,1-1.38,9.18c-.74,1.4-1.57,2.76-2.32,4.15A4.71,4.71,0,0,0,815.66,79.59Z"></path><path class="ab" d="M819.93,64.51a14.74,14.74,0,0,1-2.84,5.69,46.45,46.45,0,0,1-5.8,6.18c.57-2.17,1.81-4.06,2.59-6.14A12,12,0,0,0,815,65.89a1.14,1.14,0,0,1-.14-.83,38.46,38.46,0,0,0,.27-5.68,1.35,1.35,0,0,1,.33-1.1A19.49,19.49,0,0,1,819,60.86C819.12,62.13,819.82,63.24,819.93,64.51Z"></path><path class="ac" d="M815.48,58.29a30.23,30.23,0,0,1-.46,7.6,10.73,10.73,0,0,1-1.5,0,1,1,0,0,0-1.06.66c-.5-.87-.48-2-1.13-2.76-.6-1.65-1.11-3.33-1.69-5a1.83,1.83,0,0,1-.08-1.36,1.81,1.81,0,0,1,0-1.54.53.53,0,0,1,.59-.18,16.08,16.08,0,0,1,4.75,1.92,1.7,1.7,0,0,1,.33.42Z"></path><path class="ad" d="M811.53,63.74a3.65,3.65,0,0,1,.93,2.81c-.93,2.73-3,3.28-5.45,1.47-1.37-1.4-1.22-3.08.4-4.32l0,0a2.66,2.66,0,0,1,3.74-.35h0A2.59,2.59,0,0,1,811.53,63.74Z"></path><path class="ae" d="M807.41,63.7A3.29,3.29,0,0,0,807,68l-8.28-1.94a11.62,11.62,0,0,1,3.35-1C803.84,64.55,805.63,64.14,807.41,63.7Z"></path><path class="af" d="M816.34,86.42l1.53,0a1,1,0,0,1-.69.37C817,86.48,816.54,86.73,816.34,86.42Z"></path><path d="M815.26,58.05a18.84,18.84,0,0,0-17.84-.59c-1.33.65-2.43,1.65-3.74,2.33A11.7,11.7,0,0,1,813,54.72,7,7,0,0,1,815.26,58.05Z"></path><path class="ac" d="M828.11,57a11.48,11.48,0,0,1-.2,3c.2,1.49-.43,2.85-.61,4.29a2.43,2.43,0,0,1-.69,1.56c-.8.17-1.66-.24-2.42.25a54.3,54.3,0,0,0-5.25-5.26l0-.38c.16-.29.15-.62.29-.92a8.77,8.77,0,0,1,3.17-3.63,4.33,4.33,0,0,1,5,0C827.78,56.21,828.15,56.47,828.11,57Z"></path><path d="M828.11,57a4,4,0,0,0-5.24-1,10.25,10.25,0,0,0-3.5,3.78c-.39,0-.3-.22-.2-.44a12.3,12.3,0,0,1,2-5c1.75-2.52,4-2.61,6-.25a5.39,5.39,0,0,1,1.44,3.08Z"></path><path class="ag" d="M819.17,59.34l.2.44a1.12,1.12,0,0,1-.4.7C819,60.09,818.85,59.67,819.17,59.34Z"></path><path class="ah" d="M826.61,65.87c.15-.5.29-1,.43-1.49.22-.35.39-.86.92-.31,0,.42-.39.84,0,1.28.44-.21.26-.72.53-1s.37,0,.49.21l.25.63a1.46,1.46,0,0,1,0,1.57c0,.06-.05.13-.08.2-.25.55-.44,1.24-1.18,1.24s-.94-.68-1.19-1.24c-.18-.35.05-.77-.16-1.12Z"></path><path class="ai" d="M829.22,66.78V65.22a1.22,1.22,0,0,1,.63.89Z"></path><path class="ac" d="M826.61,65.86c.06.38.11.75.16,1.12C826.45,66.65,826.54,66.26,826.61,65.86Z"></path><path class="aj" d="M829,64.58l-.45-.24c-.27,0-.53,0-.68-.25-.46-.43-.52.25-.81.29l.87-4.36A20.57,20.57,0,0,1,829,64.58Z"></path><path class="ak" d="M811.53,63.74a3.38,3.38,0,0,0-4.13-.06,36.67,36.67,0,0,1,2.16-6.25Z"></path><path class="al" d="M808.24,64.43a1.14,1.14,0,0,1,1.13-1.14h.06a1.1,1.1,0,0,1,1.18,1h0v.14a1.11,1.11,0,0,1-1,1.21h-.25a1.14,1.14,0,0,1-1.14-1.14h0Z"></path><path class="a" d="M827.85,64.09l.68.25a.37.37,0,0,0,0,.11c0,.45.12.94-.35,1.25-.23.14-.42,0-.53-.19a1,1,0,0,1,.19-1.4Z"></path><rect class="am" x="911" y="19.18" width="92.63" height="92.63" rx="20" transform="translate(234.08 696.11) rotate(-45)"></rect><path class="e" d="M949.14,88.76a1.34,1.34,0,0,1-.34-1.05V44.5c0-1.07.3-1.32,1.41-1.14l24.73,4,2.25.36c1.06.16,1.24.35,1.24,1.41v33.2c0,1.33-.1,1.46-1.39,1.69L952,88.5c-.4.07-.79.17-1.18.26Zm4.57-22.52V82.31c0,1,.23,1.21,1.21,1.07l18.89-2.7a.9.9,0,0,0,.92-.91v-.14q0-13.48,0-27a.9.9,0,0,0-.73-1,.55.55,0,0,0-.18,0c-2.94-.35-5.86-.74-8.79-1.11-3.35-.43-6.71-.86-10.06-1.27-1.14-.14-1.26,0-1.26,1.16V66.24Z"></path><path class="e" d="M942.44,65.84V48.11c0-1.38.17-1.53,1.54-1.4,2.17.2,2.17.2,2.17,2.4V83.37c0,1.3-.08,1.39-1.37,1.6-.17,0-.35,0-.52.06-1.67.25-1.82.13-1.82-1.52Z"></path><path class="e" d="M936.07,65.78V51.39c0-1.3.24-1.47,1.51-1.38,2.65.19,2.19.42,2.19,2.48q0,13.71,0,27.43c0,1.35-.13,1.48-1.5,1.61-.35,0-.7.1-1,.12-.81,0-1.11-.22-1.15-1,0-.28,0-.56,0-.84Z"></path><rect class="an" x="19.18" y="166.85" width="92.63" height="92.63" rx="20" transform="translate(-131.55 108.75) rotate(-45)"></rect><path class="e" d="M65.89,235c-2.6-.13-5.86.26-9.1-.18a13.29,13.29,0,0,1-11.52-12.15,138.78,138.78,0,0,1,0-18.69,13.2,13.2,0,0,1,10.9-11.62,49.05,49.05,0,0,1,13-.15c5.22.54,9.62,5.28,10.51,10.61.18,1.07.36,2.14.58,3.2.32,1.63.86,2.11,2.52,2.26,1.08.1,2.17.17,3.25.22A1.83,1.83,0,0,1,87.86,210a7.52,7.52,0,0,1,.12,2.22c-.24,3.05-.11,6.1-.14,9.15A13.68,13.68,0,0,1,74.27,235C71.69,235,69.12,235,65.89,235Zm.64-16.27H59.22c-1.71,0-2.75.92-2.8,2.41a2.55,2.55,0,0,0,2.52,2.6h.25q7.36,0,14.72,0a2.47,2.47,0,0,0,2.68-2.24,1.61,1.61,0,0,0,0-.31,2.45,2.45,0,0,0-2.75-2.45H66.53Zm-3.84-15.45h0c-1.29,0-2.57,0-3.86,0a2.48,2.48,0,0,0-.37,4.92h.09c2.7.11,5.42.11,8.12,0a2.35,2.35,0,0,0,2.22-2.47,1.23,1.23,0,0,0,0-.19,2.41,2.41,0,0,0-2.52-2.27c-1.22,0-2.44,0-3.66,0Z"></path><rect class="ao" x="464.21" y="166.85" width="92.63" height="92.63" rx="20" transform="translate(-1.2 423.43) rotate(-45)"></rect><path class="e" d="M521,228.3a10.42,10.42,0,0,1-3.65.78c-3.63.1-4.33-2.54-4.36-4.46v-14.1h9.1v-6.86H513V192.11h-6.64a.36.36,0,0,0-.33.34c-.38,3.53-2,9.73-8.91,12.21v5.85h4.58v14.8c0,5.07,3.74,12.27,13.61,12.1,3.33,0,7-1.45,7.85-2.65L521,228.3"></path><rect class="ap" x="167.52" y="166.85" width="92.63" height="92.63" rx="20" transform="translate(-88.1 213.64) rotate(-45)"></rect><path class="e" d="M194.26,216.37c.81.39,1.52.7,2.2,1.06,5.2,2.71,10.42,5.39,15.59,8.16a2.94,2.94,0,0,0,3.1.07c5.18-2.75,10.43-5.38,15.57-8.19,1.61-.89,3-1.1,4.51-.05.85.58,1.84,1,2.74,1.5.64.37,1.68.47,1.63,1.45,0,.82-.95,1-1.57,1.3-6.7,3.51-13.51,6.8-20.06,10.58-3.18,1.83-5.62,1.7-8.74-.09-6.5-3.73-13.25-7-19.88-10.49-.61-.32-1.54-.47-1.57-1.31s1-1.1,1.63-1.45C191,218,192.63,217.22,194.26,216.37Z"></path><path class="e" d="M230.43,204c0,.56-.42.77-.81,1-5,2.64-10,5.25-15.05,7.9a2.17,2.17,0,0,1-2.21-.23L198,205.11c-1.36-.71-1.46-1.32,0-2.08q7.2-3.72,14.35-7.54a2.51,2.51,0,0,1,2.58,0q7.25,3.84,14.52,7.64C229.85,203.3,230.31,203.45,230.43,204Z"></path><path class="e" d="M213.75,223.39c-.55-.22-1.11-.39-1.62-.65q-9.18-4.78-18.35-9.6c-.55-.29-1.34-.47-1.29-1.28s.78-.8,1.27-1.08c4.55-2.58,4.56-2.59,9.12-.23,3.07,1.58,6.14,3.16,9.17,4.81a3.1,3.1,0,0,0,3.29,0c4-2.13,8-4.15,11.92-6.3a2.82,2.82,0,0,1,3.09,0c1.17.7,2.4,1.31,3.62,1.93,1.39.71,1.18,1.37,0,2q-3.8,2-7.61,4l-10.92,5.69C214.9,222.91,214.35,223.12,213.75,223.39Z"></path><rect class="aq" x="761.56" y="166.85" width="92.63" height="92.63" rx="20" transform="translate(85.89 633.69) rotate(-45)"></rect><path class="e" d="M808,238.07H785.89c-.42,0-.57-.28-.35-.65a3.9,3.9,0,0,1,.78-.84c.44-.46.87-.91,1.34-1.33s.85-.83,1.26-1.25a9.94,9.94,0,0,0,.79-.8,5.66,5.66,0,0,1,.6-.6c.8-.82,1.62-1.63,2.43-2.44s1.58-1.54,2.35-2.33c.4-.4.79-.82,1.19-1.2s.83-.84,1.26-1.23.85-.84,1.28-1.27.85-.83,1.26-1.26.8-.79,1.19-1.18l1.79-1.78.78-.78s.09-.12.18-.07.05.1.05.16v12.24c0,.47.1.57.57.57,3.82,0,7.63,0,11.44,0a8.33,8.33,0,0,0,2.06-.2,6.5,6.5,0,0,0,2.63-1.2,5.66,5.66,0,0,0,1.83-2.7,4.79,4.79,0,0,0,.21-1.2,6.45,6.45,0,0,0-.29-2.65,5.36,5.36,0,0,0-2.85-3.13l-.16-.08c-.31-.2-.31-.4,0-.6l.72-.41a5,5,0,0,0,2.43-5.13,4.89,4.89,0,0,0-1.62-3,6.42,6.42,0,0,0-2-1.22,8,8,0,0,0-3.06-.56h-2.54c-.09,0-.21,0-.25-.06s.09-.13.14-.2c.57-.65,1.24-1.2,1.81-1.84.35-.39.76-.73,1.13-1.1.82-.82,1.61-1.68,2.46-2.46.63-.59,1.21-1.23,1.83-1.82s1.26-1.23,1.88-1.85l2.38-2.4c.72-.73,1.46-1.44,2.18-2.17s1.29-1.26,1.92-1.91l1-1a.47.47,0,0,1,.51-.07c.18.05.17.21.17.35v44.39a.29.29,0,0,1-.27.29h0c-.12,0-.24,0-.37,0Z"></path><path class="e" d="M812.31,227.91h-2.93c-.44,0-.56-.12-.57-.56v-4c0-.41.13-.53.54-.53,1.91,0,3.83,0,5.75,0a3.08,3.08,0,0,1,1.8.44,2.62,2.62,0,0,1,1.08,2.43,2.37,2.37,0,0,1-1.05,1.77,3.35,3.35,0,0,1-1.78.45Z"></path><path class="e" d="M812.15,218.73H809.4c-.46,0-.58-.12-.58-.57v-3.61a.53.53,0,0,1,.44-.61h.17c1.76,0,3.52,0,5.28,0a3,3,0,0,1,2.21.78,2.07,2.07,0,0,1,.6,1.16,2.16,2.16,0,0,1-1.41,2.59,3.45,3.45,0,0,1-1.45.26Z"></path><rect class="ar" x="339.85" y="190.28" width="46" height="45.77"></rect><rect class="a" x="390.37" y="93.02" width="92.63" height="92.63" rx="20" transform="translate(29.38 349.59) rotate(-45)"></rect><path class="as" d="M127.57,139.46l-.72-.72a8.64,8.64,0,0,1-2.17-8.51,5.17,5.17,0,1,1,6.25-5.88,8.48,8.48,0,0,1,8,2.27l.31.31-3.82,3.81-.31-.3a3.17,3.17,0,0,0-4.48,4.48l8.56,8.56-3.82,3.82-4-4Z"></path><path class="at" d="M131.85,135.23l8.57-8.56a8.66,8.66,0,0,1,8.45-2.17,5.16,5.16,0,1,1,5.78,5.83,8.57,8.57,0,0,1-2.16,8.41l-.31.31-3.72-3.82.31-.31a3.17,3.17,0,0,0-4.49-4.48L135.72,139Z"></path><path class="au" d="M149,154.47a8.57,8.57,0,0,1-8.56-2.11l-.31-.31,3.81-3.82.31.31a3.17,3.17,0,1,0,4.49-4.49l-8.56-8.56,3.82-3.82,8.61,8.62a8.62,8.62,0,0,1,2.27,8.09,5.16,5.16,0,0,1-.72,10.27A5.32,5.32,0,0,1,149,154.47Z"></path><path class="av" d="M147.53,143.74,139,152.3a8.58,8.58,0,0,1-8.1,2.27,5.16,5.16,0,1,1-6.24-6.13,8.54,8.54,0,0,1,2.22-8.2l.31-.31,3.82,3.81-.31.31a3.17,3.17,0,1,0,4.49,4.49l8.56-8.56Z"></path><path class="aw" d="M440.93,128.36c-1.13.56-1.62,1.62-1.62,4.49a4.54,4.54,0,0,1,1.47-.91,5.7,5.7,0,0,0,1.47-.81c1-.73,1.14-1.62,1.14-3.17A5.62,5.62,0,0,0,440.93,128.36Z"></path><path d="M434,129a4.08,4.08,0,0,0-1.23,2.21l-3.17,12.15L427,133.43a8.33,8.33,0,0,0-1.47-3.26,4.29,4.29,0,0,0-3-1.23,4.49,4.49,0,0,0-3,1.23,8.33,8.33,0,0,0-1.47,3.26l-2.46,9.95-3.17-12.15a4.42,4.42,0,0,0-1.22-2.21,5.17,5.17,0,0,0-3.84-1.06l6,22.75a7.14,7.14,0,0,0,2.95-.33c1.3-.66,2-1.13,2.7-4.24.73-2.78,2.7-10.86,2.85-11.42.07-.25.24-1,.73-1s.66.66.74,1c.17.56,2.11,8.64,2.85,11.42.81,3.09,1.38,3.58,2.7,4.24a7.1,7.1,0,0,0,2.94.33l6-22.75A5.25,5.25,0,0,0,434,129Z"></path><path d="M443.37,131.62a4.58,4.58,0,0,1-1.23,1.06c-.57.32-1.06.49-1.62.81-1,.49-1.23,1-1.23,1.72v1.47h0v13.95a5.5,5.5,0,0,0,2.53-.32c1.3-.66,1.55-1.3,1.55-4.08v-13.7h0v-.91Z"></path><path d="M458.37,139.38,466,128s-3.17-.57-4.82.9a14,14,0,0,0-2.11,2.61l-2.77,4.07c-.17.25-.33.42-.57.42a.75.75,0,0,1-.57-.42l-2.77-4.07a22.68,22.68,0,0,0-2.12-2.61c-1.62-1.47-4.81-.9-4.81-.9l7.42,11.32-7.59,11.33s3.34.41,5-1.06a13.11,13.11,0,0,0,2-2.45l2.78-4.08c.17-.25.32-.42.56-.42a.75.75,0,0,1,.57.42l2.77,4.08a17.94,17.94,0,0,0,2,2.45c1.63,1.47,4.89,1.06,4.89,1.06Z"></path><path class="ax" d="M362.2,238.07a24.68,24.68,0,1,1,24.68-24.69A24.67,24.67,0,0,1,362.2,238.07Zm-10.32-24.71c0,3.31,0,6.62,0,9.92,0,.32.1.41.41.41,1.12,0,2.24,0,3.36,0,.29,0,.41-.07.41-.39q0-9.9,0-19.81c0-.31-.12-.39-.4-.38h-3.33c-.44,0-.44,0-.44.43Zm14.4-2.06h-5.74c-.32,0-.42.1-.42.41q0,1.68,0,3.36c0,.31.09.43.41.43h11.52c.39,0,.45-.06.45-.46V211.8c0-.45-.05-.5-.51-.5Zm0-8.19h-5.84c-.27,0-.36.07-.36.35,0,1.14,0,2.28,0,3.42,0,.25.08.34.34.34H372.1c.32,0,.41-.11.41-.42,0-1.09,0-2.17,0-3.26,0-.43,0-.43-.44-.43Zm0,20.57h5.8c.32,0,.41-.1.41-.42,0-1.09,0-2.19,0-3.29,0-.33-.12-.41-.42-.41q-5.8,0-11.61,0c-.26,0-.36.08-.36.35q0,1.68,0,3.36c0,.31.08.41.4.41C362.45,223.67,364.37,223.68,366.3,223.68Z"></path><path class="ay" d="M351.88,213.36v-9.82c0-.43,0-.43.44-.43h3.33c.28,0,.4.07.4.38q0,9.91,0,19.81c0,.32-.12.39-.41.39-1.12,0-2.24,0-3.36,0-.31,0-.41-.09-.41-.41C351.89,220,351.88,216.67,351.88,213.36Z"></path><path class="ay" d="M366.28,211.3H372c.46,0,.51,0,.51.5V215c0,.4-.06.46-.45.46H360.53c-.32,0-.41-.12-.41-.43q0-1.68,0-3.36c0-.31.1-.41.42-.41Z"></path><path class="ay" d="M366.32,203.11h5.74c.44,0,.44,0,.44.43,0,1.09,0,2.17,0,3.26,0,.31-.09.42-.41.42H360.46c-.26,0-.34-.09-.34-.34,0-1.14,0-2.28,0-3.42,0-.28.09-.36.36-.35Z"></path><path class="ay" d="M366.3,223.68c-1.93,0-3.85,0-5.78,0-.32,0-.4-.1-.4-.41q0-1.68,0-3.36c0-.27.1-.35.36-.35q5.81,0,11.61,0c.3,0,.42.08.42.41,0,1.1,0,2.2,0,3.29,0,.32-.09.42-.41.42Z"></path></svg>